# xmcd
#
# Track frame offsets:
#	187
#	31017
#	56960
#	95550
#	121350
#	141137
#	162712
#	183525
#	196062
#	218012
#	231215
#	258617
#	274225
#	298312
#
# Disc length: 4162 seconds
#
# Revision: 1
# Processed by: cddbd v1.5.1PL0 Copyright (c) Steve Scherf et al.
# Submitted via: CDex 1.50Beta5
#
DISCID=de10400e
DTITLE=アーティスト情報なし - Midnight Jazz
DYEAR=1900
DGENRE=Jazz
TTITLE0=Misty
TTITLE1=Straight No Chaser
TTITLE2=Low Down And Dirty
TTITLE3=Heartstrings
TTITLE4=Whisper Not
TTITLE5=Blues In The Night
TTITLE6=Tonight
TTITLE7=The Days Of Wine And Roses
TTITLE8=Night Train
TTITLE9=Quiet Night And Quiet Stars
TTITLE10='Round Midnight
TTITLE11=I've Got You Under My Skin
TTITLE12=Midnight Mood
TTITLE13=I'll Remember April
EXTD=
EXTT0=
EXTT1=
EXTT2=
EXTT3=
EXTT4=
EXTT5=
EXTT6=
EXTT7=
EXTT8=
EXTT9=
EXTT10=
EXTT11=
EXTT12=
EXTT13=
PLAYORDER=
